<svg width="168" height="168" viewBox="0 0 168 168" fill="none" xmlns="http://www.w3.org/2000/svg">
<path d="M74.9118 151.635L68.9563 161.645L66.0172 160.869L65.8006 149.227L67.5176 149.681L67.5546 152.421L71.7931 153.541L73.1792 151.177L74.9118 151.635ZM70.9666 154.978L67.5635 154.078L67.6369 160.188L67.8844 160.253L70.9666 154.978Z" fill="black"/>
<path d="M47.2461 141.404L40.1727 150.088L37.5924 147.986L41.5812 138.275L41.3827 138.114L35.0369 145.904L33.7095 144.823L40.7829 136.139L43.3632 138.241L39.3643 147.964L39.5628 148.126L45.9187 140.323L47.2461 141.404Z" fill="black"/>
<path d="M26.9088 121.197L16.8834 126.19L15.3997 123.211L23.0388 116.01L22.9246 115.781L13.9304 120.26L13.1671 118.728L23.1926 113.735L24.6762 116.714L17.0229 123.922L17.137 124.151L26.1456 119.664L26.9088 121.197Z" fill="black"/>
<path d="M16.7462 95.2322L5.43583 92.4475L5.32369 89.4096L16.3986 85.8146L16.4641 87.5894L13.8531 88.4223L14.0148 92.8033L16.6801 93.4414L16.7462 95.2322ZM12.3999 92.4306L12.2701 88.913L6.44631 90.7611L6.45575 91.017L12.3999 92.4306Z" fill="black"/>
<path d="M25.359 49.5874L24.14 48.6529L25.055 47.4593L18.6042 42.5144L17.6892 43.708L16.4701 42.7736L19.1957 39.218C20.1042 38.0328 21.0991 37.3574 22.1803 37.1917C23.2681 37.0175 24.4173 37.3944 25.6278 38.3224L27.2913 39.5976C28.5019 40.5255 29.1644 41.5373 29.2787 42.633C29.3911 43.7137 28.993 44.8467 28.0845 46.0318L25.359 49.5874ZM26.0906 46.0557L26.8498 45.0652C27.4404 44.2948 27.6837 43.5742 27.5798 42.9032C27.4759 42.2322 27.0388 41.6014 26.2684 41.0109L24.516 39.6676C23.7372 39.0706 23.0145 38.8123 22.3481 38.8928C21.6816 38.9732 21.0531 39.3986 20.4625 40.169L19.7033 41.1595L26.0906 46.0557Z" fill="black"/>
<path d="M44.4778 28.7249L42.012 17.3407L44.692 15.9057L52.7858 24.2764L51.2201 25.1147L49.3251 23.1348L45.4602 25.2042L46.0576 27.879L44.4778 28.7249ZM45.0858 23.5898L48.189 21.9282L43.9708 17.5078L43.7452 17.6287L45.0858 23.5898Z" fill="black"/>
<path d="M73.895 17.2745L69.893 6.35858L71.6793 6.21588L75.1959 16.0792L75.4033 16.0626L77.2934 5.76737L79.0797 5.62466L76.8775 17.0363L73.895 17.2745Z" fill="black"/>
<path d="M97.9588 18.1117L100.756 7.26674L102.43 7.69835L99.632 18.5434L97.9588 18.1117Z" fill="black"/>
<path d="M118.417 26.3714C117.714 25.9064 117.174 25.3698 116.796 24.7616C116.418 24.1535 116.232 23.5062 116.239 22.8198C116.26 22.1305 116.501 21.4389 116.96 20.745L117.181 20.4115L118.608 21.3563L118.387 21.6898C117.952 22.3481 117.821 22.9713 117.994 23.5594C118.177 24.1534 118.597 24.6683 119.255 25.1039C119.923 25.5454 120.516 25.7401 121.037 25.688C121.563 25.6271 121.974 25.3742 122.268 24.9295C122.462 24.6359 122.541 24.3428 122.505 24.05C122.468 23.7573 122.339 23.4604 122.116 23.1594C121.899 22.8495 121.618 22.5102 121.273 22.1416L120.859 21.6948C120.357 21.1581 119.952 20.6402 119.643 20.1413C119.348 19.6394 119.195 19.1355 119.185 18.6296C119.174 18.1238 119.348 17.5995 119.707 17.0569C120.072 16.5054 120.518 16.1223 121.044 15.9075C121.579 15.6986 122.157 15.6463 122.778 15.7507C123.4 15.8551 124.035 16.1222 124.685 16.5519C125.334 16.9817 125.839 17.4755 126.199 18.0334C126.567 18.5972 126.754 19.1942 126.759 19.8243C126.764 20.4544 126.549 21.0986 126.114 21.7569L125.796 22.2372L124.368 21.2924L124.686 20.812C124.951 20.4118 125.081 20.0312 125.077 19.6703C125.082 19.3152 124.976 18.9828 124.759 18.6729C124.542 18.363 124.237 18.0785 123.846 17.8195C123.277 17.4427 122.752 17.2685 122.273 17.2967C121.809 17.322 121.438 17.5436 121.162 17.9617C120.973 18.2464 120.884 18.5262 120.894 18.8013C120.918 19.0734 121.026 19.3556 121.216 19.6478C121.407 19.9401 121.672 20.2631 122.014 20.617L122.428 21.0638C122.945 21.5975 123.364 22.1241 123.685 22.6437C124.012 23.1544 124.191 23.676 124.223 24.2084C124.254 24.7408 124.084 25.2872 123.713 25.8476C123.343 26.408 122.876 26.8031 122.315 27.0328C121.763 27.2683 121.149 27.3355 120.474 27.2342C119.805 27.1241 119.119 26.8365 118.417 26.3714Z" fill="black"/>
<path d="M138.736 39.046L139.965 38.1793L142.694 42.0499L141.465 42.9166L138.736 39.046Z" fill="black"/>
<path d="M147.775 60.9479L149.271 60.5994L149.612 62.0642L157.528 60.2204L157.187 58.7556L158.683 58.4072L159.972 63.9391C160.124 64.5936 160.143 65.1916 160.028 65.7331C159.924 66.2722 159.695 66.7252 159.343 67.092C159.003 67.4669 158.552 67.7197 157.991 67.8503L157.835 67.8866C157.337 68.0028 156.905 68.0048 156.539 67.8929C156.174 67.7809 155.871 67.6104 155.631 67.3814C155.394 67.1629 155.212 66.9426 155.083 66.7206L154.834 66.7786C154.827 67.0321 154.762 67.3157 154.638 67.6293C154.526 67.9509 154.332 68.2428 154.053 68.5048C153.777 68.7772 153.379 68.9738 152.86 69.0948L152.704 69.1311C152.101 69.2715 151.555 69.251 151.063 69.0697C150.572 68.8884 150.154 68.5751 149.809 68.1297C149.467 67.6946 149.221 67.1551 149.071 66.511L147.775 60.9479ZM150.039 63.7555L150.551 65.9527C150.682 66.5137 150.919 66.9237 151.265 67.1829C151.61 67.442 152.021 67.5159 152.499 67.4046L152.639 67.3719C153.117 67.2606 153.454 67.0125 153.649 66.6276C153.846 66.253 153.878 65.78 153.745 65.2086L153.234 63.0114L150.039 63.7555ZM154.776 62.6521L155.288 64.8493C155.411 65.3791 155.641 65.7748 155.975 66.0364C156.32 66.2955 156.721 66.3718 157.179 66.2654L157.334 66.2291C157.792 66.1226 158.112 65.8781 158.297 65.4956C158.495 65.121 158.53 64.6636 158.405 64.1234L157.893 61.9262L154.776 62.6521Z" fill="black"/>
<path d="M151.756 88.9622L162.116 94.2856L161.523 97.2672L149.917 98.2052L150.264 96.4633L152.996 96.2564L153.852 91.9566L151.406 90.7198L151.756 88.9622ZM155.337 92.6925L154.65 96.1448L160.743 95.6928L160.793 95.4417L155.337 92.6925Z" fill="black"/>
<path d="M143.261 117.21L152.367 123.731L150.429 126.437L140.49 123.057L140.341 123.266L148.51 129.116L147.513 130.508L138.407 123.987L140.345 121.281L150.297 124.669L150.446 124.461L142.264 118.601L143.261 117.21Z" fill="black"/>
<path d="M124.713 138.553L125.482 139.883L124.18 140.636L128.247 147.673L129.549 146.92L130.318 148.25L126.439 150.492C125.146 151.239 123.969 151.483 122.906 151.222C121.835 150.967 120.917 150.179 120.154 148.858L119.105 147.043C118.342 145.723 118.117 144.535 118.43 143.478C118.74 142.437 119.541 141.543 120.834 140.795L124.713 138.553ZM122.686 141.536L121.605 142.161C120.765 142.647 120.264 143.219 120.103 143.879C119.943 144.539 120.105 145.289 120.591 146.129L121.696 148.041C122.187 148.89 122.756 149.405 123.402 149.586C124.049 149.767 124.792 149.614 125.633 149.129L126.713 148.504L122.686 141.536Z" fill="black"/>
<path d="M98.7085 150.103L100.699 161.125L98.9983 161.432L97.008 150.41L98.7085 150.103Z" fill="black"/>
</svg>
