<svg width="128" height="24" viewBox="0 0 128 24" fill="none" xmlns="http://www.w3.org/2000/svg">
<path d="M34.295 9.06608C34.295 9.57709 34.5499 9.99119 35.0596 10.3084C35.5694 10.6079 36.1847 10.8546 36.9054 11.0485C37.6261 11.2247 38.3468 11.4361 39.0675 11.6828C39.7883 11.9119 40.4035 12.3172 40.9133 12.8987C41.4231 13.4626 41.678 14.1938 41.678 15.0925C41.678 16.2907 41.2121 17.2511 40.2805 17.9736C39.3664 18.696 38.1886 19.0573 36.7472 19.0573C35.464 19.0573 34.3653 18.7753 33.4512 18.2115C32.5371 17.6476 31.8867 16.8987 31.5 15.9648L33.4776 14.8282C33.6885 15.4626 34.084 15.9648 34.6641 16.3348C35.2442 16.7048 35.9386 16.8899 36.7472 16.8899C37.5031 16.8899 38.1271 16.7489 38.6193 16.467C39.1115 16.1674 39.3576 15.7092 39.3576 15.0925C39.3576 14.5815 39.1027 14.1762 38.5929 13.8767C38.0831 13.5595 37.4679 13.3128 36.7472 13.1366C36.0265 12.9427 35.3057 12.7225 34.585 12.4758C33.8643 12.2291 33.2491 11.8238 32.7393 11.2599C32.2295 10.696 31.9746 9.97357 31.9746 9.09251C31.9746 7.94714 32.4141 7.0044 33.293 6.26432C34.1895 5.52423 35.3057 5.15418 36.6417 5.15418C37.714 5.15418 38.6632 5.40088 39.4894 5.89427C40.3332 6.37004 40.966 7.03965 41.3879 7.90308L39.4631 8.98678C38.9884 7.85903 38.048 7.29515 36.6417 7.29515C35.9913 7.29515 35.4376 7.45374 34.9805 7.77092C34.5235 8.07048 34.295 8.5022 34.295 9.06608Z" fill="#222222"/>
<path d="M51.6715 5.15418C53.5173 5.15418 55.0906 5.8326 56.3914 7.18943C57.6922 8.52863 58.3426 10.1674 58.3426 12.1057C58.3426 14.0441 57.6922 15.6916 56.3914 17.0485C55.0906 18.3877 53.5173 19.0573 51.6715 19.0573C49.4918 19.0573 47.8306 18.185 46.688 16.4405V24H44.394V5.4978H46.688V7.77092C47.8306 6.02643 49.4918 5.15418 51.6715 5.15418ZM51.3815 16.837C52.6999 16.837 53.8073 16.3877 54.7038 15.489C55.6003 14.5727 56.0486 13.4449 56.0486 12.1057C56.0486 10.7665 55.6003 9.64758 54.7038 8.7489C53.8073 7.8326 52.6999 7.37445 51.3815 7.37445C50.0455 7.37445 48.9293 7.8326 48.0328 8.7489C47.1363 9.64758 46.688 10.7665 46.688 12.1057C46.688 13.4449 47.1363 14.5727 48.0328 15.489C48.9293 16.3877 50.0455 16.837 51.3815 16.837Z" fill="#222222"/>
<path d="M62.6883 13.163C62.9168 14.3436 63.453 15.2599 64.2967 15.9119C65.1581 16.5639 66.2128 16.8899 67.4609 16.8899C69.2011 16.8899 70.4668 16.2467 71.2578 14.9604L73.209 16.0705C71.9258 18.0617 69.9922 19.0573 67.4081 19.0573C65.3163 19.0573 63.6112 18.4053 62.2928 17.1013C60.992 15.7797 60.3416 14.1145 60.3416 12.1057C60.3416 10.1145 60.9832 8.45815 62.2664 7.13656C63.5497 5.81498 65.2108 5.15418 67.2499 5.15418C69.1836 5.15418 70.7568 5.84141 71.9698 7.21586C73.2003 8.57269 73.8155 10.2115 73.8155 12.1322C73.8155 12.467 73.7891 12.8106 73.7364 13.163H62.6883ZM67.2499 7.32159C66.0194 7.32159 64.9999 7.67401 64.1913 8.37885C63.3827 9.06608 62.8817 9.99119 62.6883 11.1542H71.4951C71.3018 9.90308 70.8096 8.95154 70.0185 8.29956C69.2275 7.64758 68.3046 7.32159 67.2499 7.32159Z" fill="#222222"/>
<path d="M82.6232 19.0573C80.6368 19.0573 78.9844 18.3965 77.666 17.0749C76.3476 15.7357 75.6884 14.0793 75.6884 12.1057C75.6884 10.1322 76.3476 8.48458 77.666 7.163C78.9844 5.82379 80.6368 5.15418 82.6232 5.15418C83.924 5.15418 85.0929 5.47136 86.1301 6.10573C87.1672 6.72247 87.9407 7.55947 88.4504 8.61674L86.5256 9.72687C86.1916 9.02203 85.673 8.45815 84.9699 8.03524C84.2843 7.61233 83.5021 7.40088 82.6232 7.40088C81.3048 7.40088 80.1973 7.85022 79.3008 8.7489C78.4219 9.64758 77.9824 10.7665 77.9824 12.1057C77.9824 13.4273 78.4219 14.5374 79.3008 15.4361C80.1973 16.3348 81.3048 16.7841 82.6232 16.7841C83.5021 16.7841 84.2931 16.5815 84.9963 16.1762C85.6994 15.7533 86.2355 15.1894 86.6047 14.4846L88.5559 15.6211C87.9934 16.6608 87.1848 17.4978 86.1301 18.1322C85.0754 18.7489 83.9064 19.0573 82.6232 19.0573Z" fill="#222222"/>
<path d="M119.041 5.4978H121.335V18.7137H119.041V16.4405C117.898 18.185 116.237 19.0573 114.057 19.0573C112.212 19.0573 110.638 18.3877 109.338 17.0485C108.037 15.6916 107.386 14.0441 107.386 12.1057C107.386 10.1674 108.037 8.52863 109.338 7.18943C110.638 5.8326 112.212 5.15418 114.057 5.15418C116.237 5.15418 117.898 6.02643 119.041 7.77092V5.4978ZM114.347 16.837C115.683 16.837 116.8 16.3877 117.696 15.489C118.593 14.5727 119.041 13.4449 119.041 12.1057C119.041 10.7665 118.593 9.64758 117.696 8.7489C116.8 7.8326 115.683 7.37445 114.347 7.37445C113.029 7.37445 111.922 7.8326 111.025 8.7489C110.129 9.64758 109.68 10.7665 109.68 12.1057C109.68 13.4449 110.129 14.5727 111.025 15.489C111.922 16.3877 113.029 16.837 114.347 16.837Z" fill="#222222"/>
<path d="M125.971 3.09251C125.531 3.09251 125.162 2.94273 124.863 2.64317C124.564 2.34361 124.415 1.98238 124.415 1.55947C124.415 1.13656 124.564 0.775329 124.863 0.47577C125.162 0.15859 125.531 0 125.971 0C126.393 0 126.753 0.15859 127.052 0.47577C127.351 0.775329 127.5 1.13656 127.5 1.55947C127.5 1.98238 127.351 2.34361 127.052 2.64317C126.753 2.94273 126.393 3.09251 125.971 3.09251ZM124.811 18.7137V5.4978H127.105V18.7137H124.811Z" fill="#222222"/>
<path d="M103.088 13.7577C103.088 16.4948 100.875 18.7137 98.1445 18.7137C95.414 18.7137 93.2005 16.4948 93.2005 13.7577C93.2005 11.0206 95.414 8.80176 98.1445 8.80176C100.875 8.80176 103.088 11.0206 103.088 13.7577Z" fill="#222222"/>
<rect width="22.5" height="22.5" rx="4" fill="#222222"/>
<ellipse cx="11.2491" cy="11.2511" rx="4.09091" ry="4.09091" fill="white"/>
</svg>
