<svg width="133" height="32" viewBox="0 0 133 32" fill="none" xmlns="http://www.w3.org/2000/svg">
<g clip-path="url(#clip0_732_919)">
<path d="M41.8592 25.1387C40.6136 24.4492 39.7555 23.5478 39.2848 22.4346C39.2173 22.2867 39.1789 22.1272 39.1719 21.9649C39.1716 21.849 39.1943 21.7343 39.2387 21.6273C39.2831 21.5203 39.3483 21.4232 39.4306 21.3416C39.6228 21.151 39.8688 21.0238 40.1354 20.9769C40.2124 20.9588 40.2914 20.9512 40.3704 20.9543C40.6266 20.957 40.8762 21.0356 41.0877 21.1802C41.3118 21.3258 41.4879 21.5343 41.5938 21.7797C41.8762 22.3916 42.4327 22.9088 43.2633 23.331C44.1165 23.7597 45.0601 23.9777 46.015 23.9667C47.1913 23.9667 48.1869 23.6961 49.0017 23.1549C49.8165 22.6137 50.2243 21.8734 50.2251 20.934C50.2251 20.0405 49.8802 19.2765 49.1903 18.642C48.5005 18.0075 47.4485 17.6183 46.0342 17.4745C44.0898 17.2871 42.5611 16.7192 41.448 15.7708C40.335 14.8223 39.7785 13.6353 39.7785 12.2097C39.7572 11.2711 40.0604 10.3539 40.637 9.61279C41.2086 8.88491 41.9925 8.32865 42.9888 7.94401C44.0608 7.54662 45.1972 7.35138 46.3404 7.36819C47.6876 7.36819 48.824 7.64218 49.7495 8.19015C50.7102 8.77458 51.5166 9.58068 52.1013 10.5409C52.2742 10.7905 52.3721 11.0843 52.3837 11.3877C52.3839 11.557 52.3408 11.7235 52.2586 11.8715C52.1763 12.0195 52.0577 12.144 51.9138 12.2334C51.7305 12.3466 51.5181 12.4039 51.3027 12.3982C51.0714 12.3994 50.844 12.3386 50.6442 12.2221C50.4443 12.1096 50.2809 11.9423 50.1731 11.74C49.7922 11.0771 49.2478 10.5227 48.5917 10.1299C47.9568 9.76182 47.1533 9.57779 46.1811 9.57779C44.9897 9.57779 44.0254 9.80887 43.2882 10.271C42.5509 10.7332 42.1815 11.4031 42.18 12.2808C42.18 13.096 42.5095 13.7776 43.1684 14.3255C43.8274 14.8735 45.004 15.2337 46.6984 15.4061C48.5811 15.5942 50.0391 16.1625 51.0723 17.111C52.1055 18.0594 52.621 19.3097 52.6187 20.8618C52.6187 21.9908 52.3133 22.9588 51.7026 23.7657C51.0752 24.5826 50.2321 25.2083 49.2683 25.5723C48.23 25.9756 47.1244 26.178 46.0105 26.1684C44.5612 26.1872 43.1315 25.8325 41.8592 25.1387Z" fill="#181935"/>
<path d="M64.2245 13.8439C65.2043 14.3994 66.0133 15.2124 66.5639 16.1947C67.1339 17.2097 67.4262 18.357 67.4111 19.5209C67.4257 20.6778 67.1541 21.8205 66.6203 22.8472C66.1257 23.8089 65.3777 24.6174 64.4572 25.1855C63.247 25.9259 61.8095 26.2029 60.4107 25.9652C59.0119 25.7275 57.7467 24.9912 56.8493 23.8927V30.2392C56.8596 30.3994 56.8356 30.5598 56.779 30.71C56.7223 30.8601 56.6343 30.9965 56.5208 31.1099C56.4073 31.2234 56.2709 31.3114 56.1207 31.368C55.9705 31.4246 55.8099 31.4486 55.6497 31.4383C55.4919 31.4433 55.3348 31.4169 55.1873 31.3604C55.0399 31.304 54.9053 31.2188 54.7912 31.1097C54.6773 30.9962 54.5883 30.8601 54.5299 30.7102C54.4715 30.5603 54.4451 30.3999 54.4523 30.2392V19.5209C54.4373 18.3556 54.7336 17.2073 55.3108 16.1947C55.8644 15.2185 56.6679 14.4071 57.6389 13.8439C58.6337 13.2684 59.7654 12.9719 60.9147 12.9858C62.0748 12.972 63.2174 13.2683 64.2245 13.8439ZM63.0486 23.3462C63.6822 22.9629 64.2017 22.4171 64.5532 21.7655C64.9274 21.0772 65.118 20.3042 65.1067 19.5209C65.1174 18.7334 64.9269 17.9562 64.5532 17.2628C64.2026 16.6104 63.6829 16.0644 63.0486 15.6821C62.5715 15.3915 62.04 15.2017 61.4867 15.1241C60.9335 15.0465 60.3703 15.0829 59.8316 15.2309C59.293 15.379 58.7903 15.6356 58.3546 15.985C57.9188 16.3344 57.5592 16.7693 57.2978 17.2628C56.9322 17.9587 56.7466 18.735 56.7578 19.5209C56.7459 20.3026 56.9316 21.0747 57.2978 21.7655C57.5653 22.2529 57.9281 22.6817 58.3646 23.0264C58.801 23.371 59.3023 23.6246 59.8386 23.772C60.3749 23.9194 60.9354 23.9577 61.4868 23.8846C62.0382 23.8114 62.5693 23.6284 63.0486 23.3462Z" fill="#181935"/>
<path d="M77.5235 13.4737C77.9942 13.7244 78.2296 14.0379 78.2296 14.4142C78.233 14.4933 78.225 14.5724 78.2058 14.6491C78.0646 15.1504 77.728 15.4293 77.2423 15.4293C77.1232 15.4242 77.0049 15.4083 76.8887 15.3819C76.2618 15.269 75.7749 15.1899 75.3841 15.1899C74.2545 15.1899 73.3451 15.4485 72.6561 15.9656C72.3251 16.2028 72.0576 16.5177 71.877 16.8825C71.6963 17.2473 71.6082 17.6509 71.6202 18.0578V24.7633C71.6202 25.1404 71.5231 25.4306 71.3265 25.6338C71.13 25.8371 70.8363 25.9387 70.4454 25.9387C70.0546 25.9387 69.7779 25.8416 69.5745 25.6451C69.3712 25.4487 69.2695 25.1562 69.2695 24.7633V17.771C69.2695 15.5309 70.851 14.3623 71.5988 13.922C72.6493 13.301 74.3268 13.0379 75.5377 13.0831C76.368 13.1147 77.0536 13.2231 77.5235 13.4737Z" fill="#181935"/>
<path d="M81.3583 25.1977C80.3872 24.658 79.588 23.8553 79.0528 22.882C78.5038 21.8944 78.2297 20.774 78.2305 19.5208C78.2305 18.2509 78.5046 17.1219 79.0528 16.1335C79.5877 15.1599 80.3869 14.3572 81.3583 13.8178C82.3871 13.2508 83.5465 12.9631 84.7211 12.9834C85.8845 12.9643 87.0323 13.2521 88.0489 13.8178C89.0164 14.3621 89.814 15.1636 90.3533 16.1335C90.9098 17.1203 91.1881 18.2494 91.1881 19.5208C91.2079 20.6932 90.9246 21.851 90.3657 22.882C89.8327 23.8528 89.0383 24.6549 88.0727 25.1977C87.0937 25.7532 85.9765 26.0314 84.7211 26.0321C83.5466 26.0519 82.3873 25.7643 81.3583 25.1977ZM86.873 23.3517C87.5037 22.9802 88.017 22.4387 88.3539 21.7891C88.7155 21.0884 88.8975 20.309 88.8837 19.5208C88.8967 18.7286 88.7148 17.9454 88.3539 17.24C88.0192 16.5865 87.5056 16.0415 86.873 15.6684C86.216 15.299 85.4749 15.105 84.7211 15.105C83.9674 15.105 83.2263 15.299 82.5693 15.6684C81.9344 16.0441 81.4172 16.5896 81.0759 17.2434C80.7077 17.9465 80.5217 18.7307 80.5349 19.5241C80.5209 20.3138 80.707 21.0941 81.0759 21.7925C81.4199 22.4411 81.9368 22.9819 82.5693 23.3551C83.226 23.7252 83.9672 23.9196 84.7211 23.9196C85.4751 23.9196 86.2163 23.7252 86.873 23.3551V23.3517Z" fill="#181935"/>
<path d="M108.043 13.3393C108.215 13.533 108.304 13.7866 108.29 14.045C108.294 14.2758 108.255 14.5054 108.177 14.7225L104.696 25.1596C104.615 25.3829 104.467 25.5759 104.273 25.7129C104.077 25.8595 103.839 25.9387 103.595 25.9387C103.338 25.9411 103.087 25.862 102.878 25.7129C102.68 25.5826 102.534 25.3867 102.467 25.1596L100.162 16.6272L97.7391 25.1596C97.6563 25.3854 97.5041 25.5791 97.3042 25.7129C97.1019 25.8576 96.8594 25.9354 96.6106 25.9354C96.3619 25.9354 96.1194 25.8576 95.9171 25.7129C95.7169 25.5791 95.5643 25.3854 95.481 25.1596L91.9962 14.7258C91.9318 14.5124 91.9002 14.2905 91.9025 14.0676C91.9025 13.409 92.2315 13.08 92.8897 13.0808C93.1604 13.071 93.4249 13.1633 93.6307 13.3393C93.8601 13.5674 94.0263 13.851 94.1131 14.1624L96.6524 22.084L99.0472 13.9761C99.116 13.7244 99.2593 13.4992 99.4584 13.3303C99.6751 13.1584 99.9467 13.0706 100.223 13.083C100.492 13.0731 100.755 13.161 100.964 13.3303C101.162 13.4997 101.304 13.7248 101.372 13.9761L103.489 22.2511L106.076 14.1647C106.295 13.4428 106.703 13.0823 107.299 13.083C107.63 13.0815 107.878 13.167 108.043 13.3393Z" fill="#181935"/>
<path d="M115.874 23.9167C116.075 24.1515 116.18 24.4536 116.167 24.7624C116.172 24.9238 116.139 25.0841 116.071 25.2308C116.004 25.3776 115.904 25.507 115.779 25.6092C115.497 25.8362 115.142 25.953 114.78 25.9378H114.36C113.615 25.9444 112.884 25.7362 112.255 25.3382C111.619 24.9377 111.103 24.3733 110.761 23.7045C110.394 22.9846 110.208 22.1856 110.221 21.3775V10.1646C110.221 9.8529 110.345 9.55394 110.566 9.33351C110.786 9.11309 111.085 8.98926 111.397 8.98926C111.709 8.98926 112.008 9.11309 112.229 9.33351C112.449 9.55394 112.573 9.8529 112.573 10.1646V13.5518H114.812C115.105 13.5385 115.392 13.6398 115.612 13.8341C115.714 13.9302 115.794 14.0471 115.847 14.1768C115.899 14.3066 115.924 14.4461 115.918 14.5861C115.921 14.7188 115.895 14.8506 115.842 14.9724C115.789 15.0942 115.711 15.2031 115.612 15.2917C115.392 15.4861 115.105 15.5873 114.812 15.574H112.565V21.3797C112.545 21.9494 112.729 22.5076 113.083 22.9548C113.23 23.1521 113.422 23.3123 113.642 23.4224C113.863 23.5326 114.106 23.5898 114.352 23.5893H115.152C115.289 23.5873 115.425 23.6156 115.55 23.6722C115.674 23.7288 115.785 23.8123 115.874 23.9167Z" fill="#181935"/>
<path d="M16.332 19.9815C17.932 16.5208 21.0433 12.3181 23.9597 10.9129C26.8761 9.50773 30.7396 8.85818 31.8459 11.6549C32.8469 14.1788 30.481 16.7331 26.5379 16.8589C23.1529 16.971 17.8934 18.0041 16.332 19.9815Z" fill="#46BA79"/>
<path d="M16.3321 19.9815C14.7321 16.5208 11.6208 12.3181 8.70522 10.9129C5.78959 9.50773 1.92533 8.85818 0.813677 11.6549C-0.188027 14.1788 2.1786 16.7331 6.12172 16.8589C9.50597 16.971 14.7662 18.0041 16.3268 19.9815" fill="#46BA79"/>
<path d="M18.7463 28.4606C18.4179 25.4865 17.3116 21.9561 16.3296 19.9824C15.3483 21.953 14.2412 25.4865 13.9129 28.4606C13.7302 30.4994 15.5978 31.0421 16.3296 31.0421C17.0613 31.0421 18.929 30.4994 18.7463 28.4606Z" fill="#46BA79"/>
<path d="M16.3292 10.7434C18.0547 10.7434 19.4534 8.78616 19.4534 6.37172C19.4534 3.95729 18.0547 2 16.3292 2C14.6038 2 13.2051 3.95729 13.2051 6.37172C13.2051 8.78616 14.6038 10.7434 16.3292 10.7434Z" fill="#46BA79"/>
</g>
<defs>
<clipPath id="clip0_732_919">
<rect width="132" height="32" fill="white" transform="translate(0.583984)"/>
</clipPath>
</defs>
</svg>
