<svg width="104" height="104" viewBox="0 0 104 104" fill="none" xmlns="http://www.w3.org/2000/svg">
<path d="M47.6891 87.6337L41.7336 97.6443L38.7945 96.8676L38.5779 85.2258L40.295 85.6796L40.332 88.42L44.5705 89.5402L45.9566 87.1759L47.6891 87.6337ZM43.744 90.9767L40.3408 90.0773L40.4142 96.1868L40.6617 96.2522L43.744 90.9767Z" fill="black"/>
<path d="M32.6562 82.2281L25.5829 90.9118L23.0026 88.81L26.9914 79.0996L26.7929 78.9379L20.4471 86.7284L19.1197 85.6472L26.193 76.9635L28.7734 79.0653L24.7745 88.7882L24.9729 88.9498L31.3289 81.1469L32.6562 82.2281Z" fill="black"/>
<path d="M21.8366 71.6283L11.8111 76.6213L10.3275 73.6423L17.9665 66.4417L17.8524 66.2125L8.85809 70.6919L8.09488 69.1595L18.1203 64.1665L19.604 67.1455L11.9506 74.3532L12.0647 74.5824L21.0733 70.0958L21.8366 71.6283Z" fill="black"/>
<path d="M16.383 58.3406L5.07255 55.5559L4.96041 52.518L16.0353 48.923L16.1009 50.6978L13.4898 51.5307L13.6515 55.9117L16.3169 56.5498L16.383 58.3406ZM12.0367 55.539L11.9068 52.0214L6.08303 53.8695L6.09247 54.1254L12.0367 55.539Z" fill="black"/>
<path d="M20.6324 33.9565L19.4134 33.0221L20.3284 31.8284L13.8776 26.8835L12.9626 28.0772L11.7436 27.1427L14.4691 23.5872C15.3776 22.402 16.3725 21.7265 17.4538 21.5608C18.5415 21.3867 19.6907 21.7636 20.9013 22.6915L22.5648 23.9667C23.7753 24.8947 24.4378 25.9065 24.5522 27.0022C24.6645 28.0829 24.2665 29.2158 23.358 30.401L20.6324 33.9565ZM21.364 30.4248L22.1233 29.4344C22.7138 28.664 22.9571 27.9433 22.8532 27.2723C22.7493 26.6013 22.3122 25.9705 21.5418 25.38L19.7895 24.0367C19.0106 23.4397 18.288 23.1814 17.6215 23.2619C16.955 23.3424 16.3265 23.7678 15.736 24.5381L14.9767 25.5286L21.364 30.4248Z" fill="black"/>
<path d="M30.429 22.8909L27.9631 11.5067L30.6431 10.0717L38.737 18.4424L37.1713 19.2807L35.2762 17.3008L31.4114 19.3702L32.0088 22.045L30.429 22.8909ZM31.037 17.7558L34.1401 16.0942L29.922 11.6739L29.6963 11.7947L31.037 17.7558Z" fill="black"/>
<path d="M47.4243 16.4699L43.4223 5.5539L45.2086 5.41119L48.7252 15.2745L48.9326 15.2579L50.8227 4.96268L52.609 4.81997L50.4068 16.2316L47.4243 16.4699Z" fill="black"/>
<path d="M59.41 17.0307L62.2075 6.18569L63.8807 6.6173L61.0832 17.4623L59.41 17.0307Z" fill="black"/>
<path d="M71.3209 22.3246C70.6182 21.8595 70.078 21.3229 69.7002 20.7148C69.3224 20.1066 69.1368 19.4593 69.1433 18.773C69.1647 18.0836 69.4049 17.392 69.8641 16.6982L70.0848 16.3646L71.5125 17.3094L71.2918 17.643C70.8561 18.3012 70.7251 18.9244 70.8987 19.5125C71.0812 20.1066 71.5015 20.6214 72.1598 21.057C72.8269 21.4985 73.4207 21.6932 73.9413 21.6412C74.4676 21.5802 74.878 21.3274 75.1723 20.8826C75.3666 20.5891 75.4455 20.2959 75.409 20.0032C75.3725 19.7104 75.2428 19.4135 75.0199 19.1125C74.8029 18.8026 74.5222 18.4633 74.1777 18.0947L73.7635 17.6479C73.2617 17.1112 72.8562 16.5933 72.5468 16.0944C72.2522 15.5925 72.0996 15.0886 72.089 14.5827C72.0785 14.0769 72.2527 13.5527 72.6118 13.0101C72.9768 12.4585 73.4222 12.0754 73.9481 11.8606C74.4828 11.6517 75.061 11.5995 75.6826 11.7039C76.3043 11.8083 76.9397 12.0753 77.5891 12.5051C78.2384 12.9348 78.7431 13.4286 79.1029 13.9865C79.4717 14.5503 79.6586 15.1473 79.6637 15.7774C79.6688 16.4076 79.4535 17.0517 79.0179 17.71L78.7 18.1903L77.2723 17.2455L77.5902 16.7652C77.8551 16.3649 77.9855 15.9843 77.9813 15.6234C77.986 15.2684 77.8799 14.9359 77.6628 14.626C77.4458 14.3161 77.1416 14.0316 76.7502 13.7726C76.1809 13.3959 75.6567 13.2216 75.1776 13.2499C74.7132 13.2751 74.3426 13.4968 74.066 13.9148C73.8776 14.1995 73.7883 14.4794 73.7981 14.7545C73.8227 15.0265 73.9302 15.3087 74.1205 15.601C74.3108 15.8932 74.5767 16.2162 74.9181 16.5701L75.3323 17.0169C75.8489 17.5506 76.2678 18.0773 76.5891 18.5969C76.9162 19.1076 77.0955 19.6291 77.1269 20.1615C77.1583 20.6939 76.9885 21.2403 76.6177 21.8007C76.2468 22.3611 75.7807 22.7562 75.2194 22.9859C74.667 23.2215 74.0533 23.2886 73.3785 23.1874C72.7095 23.0772 72.0236 22.7896 71.3209 22.3246Z" fill="black"/>
<path d="M82.0304 27.1036L83.2596 26.2369L85.9888 30.1075L84.7596 30.9742L82.0304 27.1036Z" fill="black"/>
<path d="M85.4256 39.1588L86.9215 38.8104L87.2627 40.2752L95.1788 38.4314L94.8377 36.9666L96.3336 36.6181L97.6221 42.1501C97.7745 42.8045 97.7933 43.4025 97.6785 43.944C97.5741 44.4831 97.3456 44.9361 96.9929 45.303C96.6531 45.6778 96.2027 45.9306 95.6417 46.0613L95.4859 46.0976C94.9872 46.2137 94.5551 46.2158 94.1895 46.1038C93.8239 45.9918 93.5213 45.8213 93.2818 45.5924C93.0447 45.3738 92.862 45.1535 92.7336 44.9315L92.4843 44.9896C92.4776 45.243 92.4122 45.5266 92.2882 45.8402C92.1769 46.1619 91.982 46.4537 91.7035 46.7157C91.4274 46.9881 91.0297 47.1848 90.5102 47.3058L90.3544 47.3421C89.7519 47.4824 89.205 47.4619 88.7137 47.2806C88.2225 47.0994 87.8045 46.786 87.4598 46.3406C87.1175 45.9056 86.8714 45.366 86.7213 44.7219L85.4256 39.1588ZM87.6895 41.9664L88.2013 44.1636C88.3319 44.7246 88.5698 45.1347 88.9149 45.3938C89.2601 45.6529 89.6715 45.7269 90.1494 45.6156L90.2897 45.5829C90.7675 45.4716 91.104 45.2234 91.2991 44.8385C91.4966 44.4639 91.5288 43.9909 91.3958 43.4196L90.884 41.2224L87.6895 41.9664ZM92.4267 40.8631L92.9385 43.0603C93.0619 43.5901 93.2909 43.9858 93.6257 44.2473C93.9708 44.5064 94.3719 44.5828 94.829 44.4763L94.9848 44.44C95.4419 44.3335 95.7628 44.089 95.9475 43.7065C96.145 43.3319 96.1809 42.8745 96.0551 42.3343L95.5433 40.1372L92.4267 40.8631Z" fill="black"/>
<path d="M87.7555 53.7513L98.1161 59.0747L97.5231 62.0563L85.9171 62.9942L86.2636 61.2523L88.9964 61.0455L89.8516 56.7457L87.4059 55.5088L87.7555 53.7513ZM91.3366 57.4815L90.65 60.9339L96.7432 60.4819L96.7931 60.2308L91.3366 57.4815Z" fill="black"/>
<path d="M83.2924 69.0904L92.398 75.6117L90.4602 78.3174L80.5211 74.9383L80.372 75.1465L88.5411 80.9971L87.5442 82.3889L78.4386 75.8675L80.3764 73.1619L90.3285 76.5503L90.4776 76.3421L82.2956 70.4822L83.2924 69.0904Z" fill="black"/>
<path d="M73.7422 80.3385L74.5109 81.6683L73.2088 82.421L77.2764 89.4579L78.5785 88.7053L79.3472 90.0351L75.4686 92.2771C74.1757 93.0244 72.998 93.2677 71.9357 93.0071C70.864 92.7518 69.9466 91.9638 69.1832 90.6432L68.1343 88.8286C67.3709 87.508 67.1461 86.3197 67.4597 85.2636C67.7694 84.2222 68.5707 83.3278 69.8636 82.5805L73.7422 80.3385ZM71.7149 83.3214L70.6344 83.946C69.7941 84.4318 69.2935 85.0045 69.1327 85.6642C68.9719 86.3238 69.1344 87.0739 69.6202 87.9142L70.7252 89.8259C71.2163 90.6755 71.7851 91.1906 72.4316 91.3713C73.0782 91.552 73.8216 91.3995 74.662 90.9137L75.7425 90.2892L71.7149 83.3214Z" fill="black"/>
<path d="M59.4428 86.6937L61.4331 97.7154L59.7326 98.0225L57.7423 87.0007L59.4428 86.6937Z" fill="black"/>
</svg>
